<svg id="svg" version="1.1" xmlns="http://www.w3.org/2000/svg" xmlns:xlink="http://www.w3.org/1999/xlink" width="400" height="400" viewBox="0, 0, 400,400"><g id="svgg"><path id="path0" d="M213.777 129.179 C 209.288 131.178,209.125 132.011,209.275 152.263 L 209.400 169.127 210.638 170.663 C 212.887 173.454,214.333 173.986,219.700 173.993 L 224.400 174.000 224.400 177.800 L 224.400 181.600 219.535 181.600 C 213.931 181.600,212.069 182.308,210.335 185.096 L 209.400 186.600 209.400 204.200 L 209.400 221.800 210.494 223.410 C 212.333 226.118,213.473 226.548,219.300 226.733 L 224.400 226.895 224.400 230.647 L 224.400 234.400 219.787 234.400 C 209.339 234.400,209.102 234.941,209.278 258.430 L 209.400 274.660 210.500 276.322 C 212.898 279.943,205.303 279.620,285.353 279.503 L 355.926 279.400 357.463 278.172 C 360.465 275.772,360.399 276.244,360.399 257.360 C 360.400 234.847,360.383 234.808,350.400 234.403 L 345.400 234.200 345.400 230.600 L 345.400 227.000 350.434 226.797 C 360.382 226.395,360.400 226.355,360.400 204.200 C 360.400 181.971,360.401 181.973,350.633 181.600 L 345.400 181.400 345.400 177.800 L 345.400 174.200 350.400 173.999 C 355.991 173.774,357.339 173.234,359.246 170.451 L 360.200 169.060 360.319 152.230 C 360.467 131.374,360.429 131.184,355.680 129.149 C 353.006 128.002,216.354 128.032,213.777 129.179 M26.800 205.590 L 26.800 279.200 78.300 279.190 C 127.540 279.181,140.548 278.955,146.649 278.002 C 150.567 277.390,157.305 275.706,158.654 275.003 C 159.284 274.674,160.080 274.404,160.422 274.402 C 163.025 274.392,173.942 267.504,179.165 262.577 C 194.355 248.248,194.787 225.074,180.137 210.464 L 175.990 206.329 179.720 202.664 C 202.398 180.391,189.139 144.462,154.685 134.821 C 144.907 132.085,148.805 132.237,84.700 132.102 L 26.800 131.979 26.800 205.590 M354.456 134.364 L 355.400 135.129 355.513 150.894 C 355.624 166.402,355.613 166.676,354.784 167.729 L 353.942 168.800 284.902 168.800 C 221.222 168.800,215.806 168.749,215.131 168.138 C 214.446 167.518,214.400 166.467,214.400 151.414 C 214.400 134.850,214.438 134.436,216.000 133.878 C 218.052 133.144,353.537 133.621,354.456 134.364 M300.000 141.200 L 300.000 143.600 302.400 143.600 L 304.800 143.600 304.800 141.200 L 304.800 138.800 302.400 138.800 L 300.000 138.800 300.000 141.200 M310.162 139.354 C 310.045 139.659,310.006 140.694,310.075 141.654 L 310.200 143.400 312.500 143.520 L 314.800 143.640 314.800 141.220 L 314.800 138.800 312.587 138.800 C 311.071 138.800,310.308 138.974,310.162 139.354 M320.000 141.200 L 320.000 143.600 322.600 143.600 L 325.200 143.600 325.200 141.200 L 325.200 138.800 322.600 138.800 L 320.000 138.800 320.000 141.200 M330.400 141.180 L 330.400 143.600 332.820 143.600 L 335.240 143.600 335.120 141.300 L 335.000 139.000 332.700 138.880 L 330.400 138.760 330.400 141.180 M340.400 141.200 L 340.400 143.600 342.800 143.600 L 345.200 143.600 345.200 141.200 L 345.200 138.800 342.800 138.800 L 340.400 138.800 340.400 141.200 M229.000 144.228 C 221.520 148.110,223.750 158.800,232.039 158.800 C 234.697 158.800,238.800 156.127,238.800 154.395 C 238.800 154.163,248.923 153.975,265.032 153.908 C 290.472 153.803,291.282 153.777,291.832 153.024 C 292.572 152.011,292.552 150.795,291.777 149.689 L 291.155 148.800 265.477 148.794 C 251.355 148.791,239.616 148.656,239.391 148.494 C 239.166 148.332,238.659 147.694,238.265 147.075 C 236.413 144.166,231.831 142.758,229.000 144.228 M233.600 149.600 C 235.149 151.149,234.149 153.600,231.967 153.600 C 230.659 153.600,229.118 151.908,229.483 150.874 C 230.220 148.789,232.182 148.182,233.600 149.600 M300.000 151.400 L 300.000 154.000 302.400 154.000 L 304.800 154.000 304.800 151.400 L 304.800 148.800 302.400 148.800 L 300.000 148.800 300.000 151.400 M310.081 151.300 L 310.200 153.800 312.500 153.920 L 314.800 154.040 314.800 151.420 L 314.800 148.800 312.381 148.800 L 309.962 148.800 310.081 151.300 M320.000 151.400 L 320.000 154.000 322.600 154.000 L 325.200 154.000 325.200 151.400 L 325.200 148.800 322.600 148.800 L 320.000 148.800 320.000 151.400 M330.400 151.420 L 330.400 154.040 332.700 153.920 L 335.000 153.800 335.119 151.300 L 335.238 148.800 332.819 148.800 L 330.400 148.800 330.400 151.420 M340.400 151.400 L 340.400 154.000 342.800 154.000 L 345.200 154.000 345.200 151.400 L 345.200 148.800 342.800 148.800 L 340.400 148.800 340.400 151.400 M300.000 161.200 L 300.000 163.600 302.400 163.600 L 304.800 163.600 304.800 161.200 L 304.800 158.800 302.400 158.800 L 300.000 158.800 300.000 161.200 M310.267 159.067 C 310.120 159.213,310.000 160.293,310.000 161.467 L 310.000 163.600 312.400 163.600 L 314.800 163.600 314.800 161.200 L 314.800 158.800 312.667 158.800 C 311.493 158.800,310.413 158.920,310.267 159.067 M320.000 161.400 L 320.000 164.000 322.600 164.000 L 325.200 164.000 325.200 161.400 L 325.200 158.800 322.600 158.800 L 320.000 158.800 320.000 161.400 M330.400 161.180 L 330.400 163.600 332.820 163.600 L 335.240 163.600 335.120 161.300 L 335.000 159.000 332.700 158.880 L 330.400 158.760 330.400 161.180 M340.667 159.067 C 340.520 159.213,340.400 160.293,340.400 161.467 L 340.400 163.600 342.800 163.600 L 345.200 163.600 345.200 161.200 L 345.200 158.800 343.067 158.800 C 341.893 158.800,340.813 158.920,340.667 159.067 M147.800 161.740 C 171.692 168.548,166.345 189.683,140.138 192.021 C 136.600 192.337,124.348 192.436,100.800 192.340 L 66.600 192.200 66.495 206.500 L 66.390 220.800 103.739 220.800 C 140.136 220.800,141.195 220.821,145.244 221.643 C 166.015 225.854,169.367 241.686,150.904 248.378 C 144.837 250.577,144.294 250.600,98.200 250.600 L 55.800 250.600 55.698 205.490 L 55.597 160.380 99.698 160.490 L 143.800 160.600 147.800 161.740 M234.400 177.800 L 234.400 181.600 232.043 181.600 C 229.251 181.600,229.200 181.525,229.200 177.434 C 229.200 173.942,229.152 174.000,232.067 174.000 L 234.400 174.000 234.400 177.800 M330.200 177.800 L 330.200 181.400 284.900 181.502 L 239.600 181.603 239.600 177.800 L 239.600 173.997 284.900 174.098 L 330.200 174.200 330.200 177.800 M340.315 177.700 L 340.200 181.400 337.800 181.400 L 335.400 181.400 335.285 177.700 L 335.170 174.000 337.800 174.000 L 340.430 174.000 340.315 177.700 M354.456 187.165 L 355.400 187.929 355.400 204.197 C 355.400 219.838,355.370 220.486,354.624 221.032 C 353.343 221.969,216.168 221.876,215.131 220.938 C 214.365 220.244,213.963 188.864,214.706 187.766 C 215.608 186.434,216.086 186.424,285.056 186.412 C 351.870 186.400,353.534 186.418,354.456 187.165 M300.000 194.000 L 300.000 196.400 302.400 196.400 L 304.800 196.400 304.800 194.000 L 304.800 191.600 302.400 191.600 L 300.000 191.600 300.000 194.000 M310.000 194.000 L 310.000 196.400 312.400 196.400 L 314.800 196.400 314.800 194.000 L 314.800 191.600 312.400 191.600 L 310.000 191.600 310.000 194.000 M320.000 194.000 L 320.000 196.400 322.600 196.400 L 325.200 196.400 325.200 194.000 L 325.200 191.600 322.600 191.600 L 320.000 191.600 320.000 194.000 M330.400 194.000 L 330.400 196.400 332.800 196.400 L 335.200 196.400 335.200 194.000 L 335.200 191.600 332.800 191.600 L 330.400 191.600 330.400 194.000 M340.000 194.200 L 340.000 196.800 342.600 196.800 L 345.200 196.800 345.200 194.200 L 345.200 191.600 342.600 191.600 L 340.000 191.600 340.000 194.200 M229.855 197.005 C 224.530 198.357,222.616 205.091,226.348 209.343 C 229.381 212.798,236.254 212.187,238.254 208.284 C 238.616 207.578,239.112 206.868,239.356 206.706 C 239.600 206.544,251.449 206.409,265.686 206.406 C 294.276 206.399,292.400 206.566,292.400 204.026 C 292.400 201.507,293.449 201.600,264.898 201.600 L 238.995 201.600 238.479 200.433 C 237.255 197.669,233.352 196.117,229.855 197.005 M233.900 202.698 C 234.706 203.754,234.479 205.080,233.337 205.978 C 231.610 207.336,229.600 206.243,229.600 203.946 C 229.600 201.826,232.574 200.963,233.900 202.698 M300.000 204.000 L 300.000 206.400 302.400 206.400 L 304.800 206.400 304.800 204.000 L 304.800 201.600 302.400 201.600 L 300.000 201.600 300.000 204.000 M310.267 201.867 C 310.120 202.013,310.000 203.093,310.000 204.267 L 310.000 206.400 312.400 206.400 L 314.800 206.400 314.800 204.000 L 314.800 201.600 312.667 201.600 C 311.493 201.600,310.413 201.720,310.267 201.867 M320.000 203.981 L 320.000 206.400 322.620 206.400 L 325.240 206.400 325.120 204.100 L 325.000 201.800 322.500 201.681 L 320.000 201.562 320.000 203.981 M330.400 203.980 L 330.400 206.400 332.820 206.400 L 335.240 206.400 335.120 204.100 L 335.000 201.800 332.700 201.680 L 330.400 201.560 330.400 203.980 M340.667 201.867 C 340.520 202.013,340.400 203.093,340.400 204.267 L 340.400 206.400 342.800 206.400 L 345.200 206.400 345.200 204.000 L 345.200 201.600 343.067 201.600 C 341.893 201.600,340.813 201.720,340.667 201.867 M300.000 214.400 L 300.000 216.800 302.400 216.800 L 304.800 216.800 304.800 214.400 L 304.800 212.000 302.400 212.000 L 300.000 212.000 300.000 214.400 M310.080 214.300 L 310.200 216.600 312.500 216.720 L 314.800 216.840 314.800 214.420 L 314.800 212.000 312.380 212.000 L 309.960 212.000 310.080 214.300 M320.000 214.400 L 320.000 216.800 322.600 216.800 L 325.200 216.800 325.200 214.400 L 325.200 212.000 322.600 212.000 L 320.000 212.000 320.000 214.400 M330.400 214.420 L 330.400 216.840 332.700 216.720 L 335.000 216.600 335.120 214.300 L 335.240 212.000 332.820 212.000 L 330.400 212.000 330.400 214.420 M340.400 214.400 L 340.400 216.800 342.800 216.800 L 345.200 216.800 345.200 214.400 L 345.200 212.000 342.800 212.000 L 340.400 212.000 340.400 214.400 M234.400 230.619 L 234.400 234.438 231.900 234.319 L 229.400 234.200 229.282 231.035 C 229.124 226.795,229.121 226.800,231.987 226.800 L 234.400 226.800 234.400 230.619 M330.200 230.600 L 330.200 234.200 284.900 234.302 L 239.600 234.403 239.600 230.600 L 239.600 226.797 284.900 226.898 L 330.200 227.000 330.200 230.600 M340.200 230.600 L 340.200 234.200 337.800 234.200 L 335.400 234.200 335.282 231.035 C 335.122 226.753,335.133 226.736,337.895 226.880 L 340.200 227.000 340.200 230.600 M354.444 240.383 L 355.627 241.565 355.513 257.406 L 355.400 273.246 354.400 274.014 C 353.423 274.765,351.827 274.782,284.954 274.791 L 216.508 274.800 215.454 273.971 L 214.400 273.142 214.400 257.033 C 214.400 239.708,214.339 240.242,216.400 239.484 C 216.730 239.362,247.659 239.249,285.131 239.232 L 353.262 239.200 354.444 240.383 M300.267 244.667 C 300.120 244.813,300.000 245.983,300.000 247.267 L 300.000 249.600 302.400 249.600 L 304.800 249.600 304.800 247.000 L 304.800 244.400 302.667 244.400 C 301.493 244.400,300.413 244.520,300.267 244.667 M310.164 244.951 C 310.047 245.254,310.008 246.379,310.076 247.451 L 310.200 249.400 312.500 249.520 L 314.800 249.640 314.800 247.020 L 314.800 244.400 312.587 244.400 C 311.078 244.400,310.308 244.575,310.164 244.951 M320.284 244.649 C 320.128 244.805,320.000 245.992,320.000 247.286 L 320.000 249.638 322.500 249.519 L 325.000 249.400 325.000 247.000 L 325.000 244.600 322.784 244.483 C 321.565 244.418,320.440 244.493,320.284 244.649 M330.685 244.649 C 330.528 244.805,330.400 245.992,330.400 247.287 L 330.400 249.640 332.700 249.520 L 335.000 249.400 335.000 247.000 L 335.000 244.600 332.985 244.482 C 331.876 244.417,330.841 244.492,330.685 244.649 M340.572 244.930 C 340.451 245.244,340.408 246.379,340.476 247.451 L 340.600 249.400 342.920 249.521 L 345.239 249.641 345.120 247.121 L 345.000 244.600 342.896 244.479 C 341.355 244.390,340.732 244.511,340.572 244.930 M228.736 250.116 C 224.153 252.246,223.006 258.570,226.519 262.333 C 229.732 265.773,236.468 264.923,238.596 260.808 L 239.221 259.600 265.010 259.600 C 293.555 259.600,292.400 259.706,292.400 257.076 C 292.400 254.457,294.029 254.612,265.230 254.491 L 239.196 254.383 238.319 253.045 C 236.417 250.144,231.748 248.717,228.736 250.116 M233.346 255.229 C 235.076 256.590,234.138 259.600,231.984 259.600 C 229.463 259.600,228.826 255.619,231.200 254.696 C 232.143 254.330,232.230 254.351,233.346 255.229 M300.000 257.000 L 300.000 259.600 302.400 259.600 L 304.800 259.600 304.800 257.000 L 304.800 254.400 302.400 254.400 L 300.000 254.400 300.000 257.000 M310.164 254.951 C 310.047 255.254,310.008 256.379,310.076 257.451 L 310.200 259.400 312.500 259.520 L 314.800 259.640 314.800 257.020 L 314.800 254.400 312.587 254.400 C 311.078 254.400,310.308 254.575,310.164 254.951 M320.000 256.981 L 320.000 259.600 322.619 259.600 L 325.238 259.600 325.119 257.100 L 325.000 254.600 322.500 254.481 L 320.000 254.362 320.000 256.981 M330.400 256.980 L 330.400 259.600 332.819 259.600 L 335.238 259.600 335.119 257.100 L 335.000 254.600 332.700 254.480 L 330.400 254.360 330.400 256.980 M340.667 254.667 C 340.520 254.813,340.400 255.983,340.400 257.267 L 340.400 259.600 342.800 259.600 L 345.200 259.600 345.200 257.000 L 345.200 254.400 343.067 254.400 C 341.893 254.400,340.813 254.520,340.667 254.667 M300.000 267.200 L 300.000 269.600 302.400 269.600 L 304.800 269.600 304.800 267.200 L 304.800 264.800 302.400 264.800 L 300.000 264.800 300.000 267.200 M310.080 267.100 L 310.200 269.400 312.500 269.520 L 314.800 269.640 314.800 267.220 L 314.800 264.800 312.380 264.800 L 309.960 264.800 310.080 267.100 M320.000 267.200 L 320.000 269.600 322.600 269.600 L 325.200 269.600 325.200 267.200 L 325.200 264.800 322.600 264.800 L 320.000 264.800 320.000 267.200 M330.400 267.220 L 330.400 269.640 332.700 269.520 L 335.000 269.400 335.120 267.100 L 335.240 264.800 332.820 264.800 L 330.400 264.800 330.400 267.220 M340.400 267.200 L 340.400 269.600 342.800 269.600 L 345.200 269.600 345.200 267.200 L 345.200 264.800 342.800 264.800 L 340.400 264.800 340.400 267.200 " stroke="none" fill="#fbfaf8" fill-rule="evenodd"></path><path id="path1" d="M0.000 200.000 L 0.000 400.000 200.000 400.000 L 400.000 400.000 400.000 200.000 L 400.000 0.000 200.000 0.000 L 0.000 0.000 0.000 200.000 M355.640 128.454 C 357.456 129.059,359.487 131.020,360.431 133.078 C 361.495 135.399,361.624 166.609,360.580 169.113 C 358.953 173.012,356.873 174.112,350.600 174.388 L 345.800 174.600 345.681 177.565 C 345.534 181.242,345.449 181.184,351.000 181.200 C 356.318 181.216,357.876 181.885,359.786 184.973 L 361.000 186.936 361.113 203.738 L 361.226 220.540 360.203 222.630 C 358.371 226.375,357.124 226.977,350.884 227.131 L 345.569 227.263 345.684 230.531 L 345.800 233.800 350.836 234.000 C 360.963 234.402,361.191 234.911,361.196 257.116 C 361.200 275.210,361.210 275.135,358.655 277.938 C 356.657 280.130,361.309 280.000,284.914 280.000 C 204.683 280.000,212.625 280.365,210.092 276.563 L 208.784 274.600 208.892 256.737 L 209.000 238.873 210.223 237.363 C 212.631 234.389,213.086 234.215,218.828 234.068 L 224.000 233.936 224.000 230.568 L 224.000 227.200 219.263 227.200 C 213.369 227.200,211.635 226.491,209.903 223.374 L 208.805 221.400 208.903 203.800 L 209.000 186.200 210.098 184.511 C 211.801 181.892,213.011 181.432,218.800 181.200 L 223.800 181.000 223.916 177.700 L 224.032 174.400 219.465 174.400 C 213.340 174.400,211.333 173.463,209.446 169.720 C 208.379 167.605,208.481 134.590,209.561 132.484 C 210.438 130.773,211.957 129.355,213.749 128.576 C 215.429 127.845,353.459 127.726,355.640 128.454 M136.420 131.605 C 149.625 132.600,156.201 134.082,164.400 137.909 C 171.531 141.238,180.444 148.349,183.539 153.178 C 183.899 153.740,184.483 154.520,184.837 154.911 C 190.148 160.782,192.794 177.421,189.914 186.838 C 187.730 193.976,184.240 199.388,178.588 204.400 L 176.558 206.200 180.427 210.000 C 188.254 217.686,191.000 224.389,191.000 235.800 C 190.998 256.274,175.157 272.726,150.676 277.677 C 148.434 278.131,145.700 278.684,144.600 278.905 C 143.332 279.161,121.325 279.368,84.500 279.471 L 26.400 279.633 26.400 205.683 C 26.400 165.011,26.520 131.613,26.667 131.467 C 27.108 131.025,130.452 131.156,136.420 131.605 M215.616 134.875 C 214.354 136.229,214.340 166.340,215.600 167.600 C 216.803 168.803,353.050 168.871,354.138 167.669 C 354.731 167.014,354.800 165.275,354.800 151.091 L 354.800 135.245 353.911 134.623 C 353.115 134.065,345.892 134.000,284.727 134.000 L 216.431 134.000 215.616 134.875 M305.400 141.200 L 305.400 143.800 302.500 143.918 L 299.600 144.035 299.600 141.200 L 299.600 138.365 302.500 138.482 L 305.400 138.600 305.400 141.200 M315.600 141.218 L 315.600 144.035 312.700 143.918 L 309.800 143.800 309.677 141.648 C 309.496 138.469,309.562 138.400,312.787 138.400 L 315.600 138.400 315.600 141.218 M325.600 141.200 L 325.600 144.000 322.600 144.000 L 319.600 144.000 319.600 141.200 L 319.600 138.400 322.600 138.400 L 325.600 138.400 325.600 141.200 M335.600 141.200 L 335.600 144.000 332.843 144.000 C 329.774 144.000,329.600 143.850,329.600 141.200 C 329.600 138.550,329.774 138.400,332.843 138.400 L 335.600 138.400 335.600 141.200 M345.600 141.200 L 345.600 144.000 342.800 144.000 L 340.000 144.000 340.000 141.200 L 340.000 138.400 342.800 138.400 L 345.600 138.400 345.600 141.200 M235.566 143.982 C 237.054 144.742,239.200 146.891,239.200 147.622 C 239.200 147.832,250.079 148.028,265.158 148.091 C 294.394 148.214,292.807 148.037,292.794 151.162 C 292.780 154.530,293.893 154.400,265.054 154.400 L 239.654 154.400 238.775 155.636 C 234.005 162.334,224.000 159.304,224.000 151.161 C 224.000 145.208,230.301 141.297,235.566 143.982 M305.120 148.342 C 305.485 148.573,305.604 149.495,305.520 151.436 L 305.400 154.200 302.600 154.200 L 299.800 154.200 299.679 151.642 C 299.613 150.235,299.652 148.840,299.767 148.542 C 300.000 147.934,304.227 147.775,305.120 148.342 M315.400 151.200 L 315.400 154.200 312.600 154.200 L 309.800 154.200 309.679 151.642 C 309.506 147.969,309.529 147.943,312.695 148.082 L 315.400 148.200 315.400 151.200 M325.517 151.318 L 325.634 154.436 322.717 154.318 L 319.800 154.200 319.679 151.642 C 319.506 147.969,319.529 147.943,322.695 148.082 L 325.400 148.200 325.517 151.318 M335.400 151.200 L 335.400 154.200 332.836 154.321 C 329.828 154.462,329.615 154.265,329.606 151.333 C 329.596 148.054,329.699 147.948,332.749 148.083 L 335.400 148.200 335.400 151.200 M345.517 151.319 L 345.634 154.437 342.917 154.319 L 340.200 154.200 340.079 151.642 C 339.908 147.998,339.953 147.941,342.895 148.081 L 345.400 148.200 345.517 151.319 M230.889 149.823 C 228.981 151.159,230.695 153.910,232.727 152.773 C 234.130 151.989,234.313 150.665,233.134 149.839 C 232.014 149.054,231.986 149.054,230.889 149.823 M305.400 161.200 L 305.400 163.800 302.500 163.918 L 299.600 164.035 299.600 161.200 L 299.600 158.365 302.500 158.482 L 305.400 158.600 305.400 161.200 M315.600 161.200 L 315.600 164.000 312.600 164.000 L 309.600 164.000 309.600 161.467 C 309.600 158.342,309.538 158.400,312.867 158.400 L 315.600 158.400 315.600 161.200 M325.517 161.500 L 325.400 164.600 322.600 164.600 L 319.800 164.600 319.683 161.500 L 319.566 158.400 322.600 158.400 L 325.634 158.400 325.517 161.500 M335.600 161.200 L 335.600 164.000 332.843 164.000 C 329.774 164.000,329.600 163.850,329.600 161.200 C 329.600 158.550,329.774 158.400,332.843 158.400 L 335.600 158.400 335.600 161.200 M345.600 161.200 L 345.600 164.000 342.800 164.000 L 340.000 164.000 340.000 161.200 L 340.000 158.400 342.800 158.400 L 345.600 158.400 345.600 161.200 M56.000 205.621 L 56.000 250.443 99.300 250.308 L 142.600 250.174 146.813 249.107 C 167.049 243.980,167.993 228.689,148.435 222.826 C 143.474 221.339,139.918 221.214,102.300 221.207 L 66.000 221.200 66.000 206.600 L 66.000 192.000 102.300 191.999 C 132.887 191.998,139.167 191.902,142.200 191.391 C 146.793 190.617,149.692 189.972,150.200 189.611 C 150.420 189.455,151.340 189.039,152.245 188.689 C 164.797 183.820,165.935 170.638,154.310 164.757 C 146.588 160.851,145.856 160.800,96.984 160.800 L 56.000 160.800 56.000 205.621 M230.084 177.700 L 230.200 181.000 232.000 181.000 L 233.800 181.000 233.916 177.700 L 234.032 174.400 232.000 174.400 L 229.968 174.400 230.084 177.700 M240.084 177.700 L 240.200 181.000 284.800 181.000 L 329.400 181.000 329.516 177.700 L 329.632 174.400 284.800 174.400 L 239.968 174.400 240.084 177.700 M335.600 177.557 C 335.600 180.922,335.768 181.200,337.800 181.200 C 339.832 181.200,340.000 180.922,340.000 177.557 L 340.000 174.400 337.800 174.400 L 335.600 174.400 335.600 177.557 M215.600 187.591 C 214.673 188.177,214.481 218.854,215.396 220.249 L 216.018 221.200 284.781 221.200 C 346.758 221.200,353.605 221.138,354.171 220.571 C 355.247 219.496,355.109 188.194,354.026 187.614 C 353.006 187.068,216.464 187.045,215.600 187.591 M305.120 191.280 C 305.807 191.967,305.741 196.185,305.034 196.772 C 304.700 197.049,303.510 197.192,302.134 197.121 L 299.800 197.000 299.679 194.442 C 299.613 193.035,299.652 191.640,299.767 191.342 C 300.033 190.648,304.437 190.597,305.120 191.280 M314.967 191.043 C 315.458 191.231,315.600 191.894,315.600 194.000 C 315.600 197.080,315.482 197.200,312.447 197.200 C 310.044 197.200,309.600 196.724,309.600 194.153 C 309.600 191.005,309.760 190.800,312.210 190.800 C 313.379 190.800,314.619 190.909,314.967 191.043 M325.400 194.000 L 325.400 197.000 322.600 197.000 L 319.800 197.000 319.679 194.442 C 319.506 190.769,319.529 190.743,322.695 190.882 L 325.400 191.000 325.400 194.000 M334.967 191.043 C 335.458 191.231,335.600 191.894,335.600 194.000 C 335.600 197.080,335.482 197.200,332.447 197.200 C 330.019 197.200,329.600 196.729,329.600 194.000 C 329.600 191.018,331.777 189.819,334.967 191.043 M345.517 194.100 L 345.634 197.200 342.617 197.200 L 339.600 197.200 339.600 194.267 C 339.600 190.691,339.554 190.740,342.783 190.884 L 345.400 191.000 345.517 194.100 M234.728 196.616 C 235.961 196.852,237.877 198.430,238.986 200.123 L 239.692 201.200 265.499 201.200 L 291.306 201.200 292.053 202.061 C 293.059 203.221,293.003 205.132,291.930 206.274 L 291.061 207.200 265.130 207.200 C 244.541 207.200,239.200 207.304,239.200 207.704 C 239.200 209.077,236.161 211.385,233.601 211.957 C 225.326 213.807,220.274 202.903,227.022 197.756 C 229.112 196.162,230.943 195.891,234.728 196.616 M305.525 203.373 C 305.757 207.034,305.578 207.254,302.488 207.118 L 299.800 207.000 299.678 204.645 C 299.500 201.197,299.548 201.144,302.695 201.282 L 305.400 201.400 305.525 203.373 M315.400 204.200 L 315.400 207.000 312.600 207.000 L 309.800 207.000 309.678 204.645 C 309.500 201.197,309.548 201.144,312.695 201.282 L 315.400 201.400 315.400 204.200 M325.600 204.218 L 325.600 207.235 322.700 207.118 L 319.800 207.000 319.678 204.645 C 319.503 201.241,319.539 201.200,322.787 201.200 L 325.600 201.200 325.600 204.218 M335.400 204.200 L 335.400 207.000 332.836 207.121 C 329.862 207.261,329.615 207.048,329.606 204.333 C 329.596 201.275,329.726 201.149,332.749 201.283 L 335.400 201.400 335.400 204.200 M345.600 204.218 L 345.600 207.237 342.900 207.118 L 340.200 207.000 340.082 204.100 L 339.965 201.200 342.782 201.200 L 345.600 201.200 345.600 204.218 M230.889 202.623 C 229.123 203.859,230.092 206.180,232.268 205.929 C 233.975 205.732,234.535 203.812,233.188 202.777 C 231.983 201.851,231.990 201.852,230.889 202.623 M305.172 211.766 C 305.449 212.100,305.592 213.290,305.521 214.666 L 305.400 217.000 302.500 217.118 L 299.600 217.235 299.600 214.484 C 299.600 212.971,299.720 211.613,299.867 211.467 C 300.393 210.941,304.688 211.183,305.172 211.766 M314.967 211.443 C 315.460 211.632,315.600 212.299,315.600 214.460 L 315.600 217.235 312.700 217.118 L 309.800 217.000 309.675 215.027 C 309.443 211.359,311.362 210.059,314.967 211.443 M325.518 214.300 L 325.635 217.200 322.618 217.200 L 319.600 217.200 319.600 214.467 C 319.600 212.963,319.727 211.606,319.883 211.450 C 320.039 211.295,321.344 211.220,322.783 211.284 L 325.400 211.400 325.518 214.300 M334.967 211.443 C 335.460 211.632,335.600 212.298,335.600 214.443 L 335.600 217.200 332.843 217.200 C 329.763 217.200,329.600 217.056,329.600 214.341 C 329.600 211.459,331.847 210.246,334.967 211.443 M345.518 214.300 L 345.635 217.200 342.818 217.200 L 340.000 217.200 340.000 214.467 C 340.000 211.132,339.994 211.138,342.984 211.283 L 345.400 211.400 345.518 214.300 M230.000 230.600 L 230.000 234.000 232.000 234.000 L 234.000 234.000 234.000 230.600 L 234.000 227.200 232.000 227.200 L 230.000 227.200 230.000 230.600 M240.000 230.600 L 240.000 234.000 284.800 234.000 L 329.600 234.000 329.600 230.600 L 329.600 227.200 284.800 227.200 L 240.000 227.200 240.000 230.600 M335.600 230.600 L 335.600 234.000 337.800 234.000 L 340.000 234.000 340.000 230.600 L 340.000 227.200 337.800 227.200 L 335.600 227.200 335.600 230.600 M215.423 240.889 C 214.326 242.454,214.503 272.330,215.616 273.525 L 216.431 274.400 284.816 274.400 C 352.667 274.400,353.206 274.394,354.000 273.600 C 355.192 272.408,355.256 241.736,354.069 240.662 C 353.394 240.051,348.006 240.000,284.691 240.000 L 216.045 240.000 215.423 240.889 M305.400 247.000 L 305.400 249.800 302.600 249.800 L 299.800 249.800 299.678 247.445 C 299.500 243.997,299.548 243.944,302.695 244.082 L 305.400 244.200 305.400 247.000 M315.400 247.000 L 315.400 249.800 312.600 249.800 L 309.800 249.800 309.678 247.445 C 309.500 243.997,309.548 243.944,312.695 244.082 L 315.400 244.200 315.400 247.000 M325.600 247.018 L 325.600 250.035 322.700 249.918 L 319.800 249.800 319.678 247.445 C 319.503 244.041,319.539 244.000,322.787 244.000 L 325.600 244.000 325.600 247.018 M335.400 247.000 L 335.400 249.800 332.836 249.921 C 329.862 250.061,329.615 249.848,329.606 247.133 C 329.596 244.075,329.726 243.949,332.749 244.083 L 335.400 244.200 335.400 247.000 M345.600 247.018 L 345.600 250.037 342.900 249.918 L 340.200 249.800 340.078 247.445 C 339.904 244.069,339.962 244.000,342.987 244.000 L 345.600 244.000 345.600 247.018 M235.553 249.852 C 236.582 250.430,237.946 251.597,238.583 252.443 L 239.741 253.983 265.703 254.092 C 294.800 254.213,292.800 253.993,292.800 257.076 C 292.800 260.169,294.384 260.000,265.477 260.000 L 239.754 260.000 238.528 261.740 C 234.563 267.365,225.164 265.565,224.178 258.991 C 223.089 251.733,229.597 246.504,235.553 249.852 M305.400 257.000 L 305.400 259.800 302.500 259.918 L 299.600 260.035 299.600 257.284 C 299.600 253.910,299.570 253.941,302.783 254.084 L 305.400 254.200 305.400 257.000 M315.518 257.118 L 315.636 260.036 312.718 259.918 L 309.800 259.800 309.678 257.445 C 309.500 253.997,309.548 253.944,312.695 254.082 L 315.400 254.200 315.518 257.118 M325.600 257.000 L 325.600 260.000 322.600 260.000 L 319.600 260.000 319.600 257.267 C 319.600 255.763,319.720 254.413,319.867 254.267 C 320.013 254.120,321.363 254.000,322.867 254.000 L 325.600 254.000 325.600 257.000 M335.518 257.100 L 335.635 260.000 332.860 260.000 C 329.737 260.000,329.600 259.874,329.600 257.000 C 329.600 254.086,329.747 253.950,332.749 254.083 L 335.400 254.200 335.518 257.100 M345.600 257.000 L 345.600 260.000 342.800 260.000 L 340.000 260.000 340.000 257.267 C 340.000 253.938,339.942 254.000,343.067 254.000 L 345.600 254.000 345.600 257.000 M230.662 255.931 C 229.121 257.634,230.792 259.639,232.860 258.569 C 234.167 257.893,234.329 256.822,233.269 255.862 C 232.318 255.002,231.483 255.024,230.662 255.931 M305.121 264.343 C 305.482 264.572,305.605 265.456,305.521 267.236 L 305.400 269.800 302.500 269.918 L 299.600 270.035 299.600 267.284 C 299.600 265.771,299.720 264.413,299.867 264.267 C 300.247 263.886,304.498 263.948,305.121 264.343 M315.121 264.343 C 315.482 264.572,315.605 265.456,315.521 267.236 L 315.400 269.800 312.600 269.800 L 309.800 269.800 309.678 267.445 C 309.612 266.149,309.651 264.844,309.766 264.545 C 310.000 263.933,314.224 263.774,315.121 264.343 M325.518 267.118 L 325.636 270.036 322.718 269.918 L 319.800 269.800 319.678 267.445 C 319.500 263.997,319.548 263.944,322.695 264.082 L 325.400 264.200 325.518 267.118 M335.121 264.343 C 335.482 264.572,335.605 265.456,335.521 267.236 L 335.400 269.800 332.836 269.921 C 331.056 270.005,330.172 269.882,329.943 269.521 C 329.437 268.724,329.538 265.022,330.080 264.480 C 330.622 263.938,334.324 263.837,335.121 264.343 M345.518 267.119 L 345.636 270.037 342.918 269.919 L 340.200 269.800 340.078 267.445 C 339.902 264.024,339.971 263.942,342.895 264.081 L 345.400 264.200 345.518 267.119 " stroke="none" fill="#fcb41c" fill-rule="evenodd"></path><path id="path2" d="M357.200 129.725 C 357.200 129.794,357.785 130.379,358.500 131.025 L 359.800 132.200 358.625 130.900 C 357.530 129.688,357.200 129.416,357.200 129.725 M26.585 132.100 C 26.480 132.375,26.441 165.630,26.498 206.000 L 26.602 279.400 26.701 205.701 L 26.800 132.003 80.300 131.900 L 133.800 131.797 80.287 131.699 C 37.773 131.620,26.736 131.703,26.585 132.100 M250.732 133.900 C 269.724 133.957,300.684 133.957,319.532 133.900 C 338.379 133.842,322.840 133.795,285.000 133.795 C 247.160 133.795,231.739 133.843,250.732 133.900 M355.382 151.400 C 355.382 159.980,355.435 163.433,355.500 159.074 C 355.564 154.714,355.564 147.694,355.499 143.474 C 355.435 139.253,355.382 142.820,355.382 151.400 M302.300 138.685 L 304.800 138.838 304.800 141.200 L 304.800 143.562 302.300 143.715 L 299.800 143.867 302.400 143.834 L 305.000 143.800 305.000 141.200 L 305.000 138.600 302.400 138.566 L 299.800 138.533 302.300 138.685 M310.272 138.681 C 310.163 138.856,311.137 138.939,312.437 138.864 L 314.800 138.729 314.800 141.200 L 314.800 143.671 312.418 143.536 C 311.109 143.461,310.183 143.545,310.361 143.723 C 310.540 143.900,311.656 143.990,312.843 143.923 L 315.000 143.800 315.000 141.200 L 315.000 138.600 312.735 138.481 C 311.490 138.416,310.381 138.506,310.272 138.681 M322.681 138.690 L 325.163 138.836 325.310 141.118 L 325.457 143.400 325.429 141.000 L 325.400 138.600 322.800 138.573 L 320.200 138.545 322.681 138.690 M330.165 138.948 C 330.049 139.249,330.010 140.464,330.077 141.648 L 330.200 143.800 332.502 143.833 L 334.804 143.866 332.602 143.713 L 330.400 143.560 330.400 141.160 L 330.400 138.760 332.700 138.880 L 335.000 139.000 335.233 141.400 L 335.466 143.800 335.533 141.343 C 335.610 138.529,335.471 138.400,332.355 138.400 C 331.048 138.400,330.303 138.586,330.165 138.948 M340.172 138.928 C 340.052 139.240,340.021 140.464,340.103 141.648 L 340.252 143.800 340.326 141.300 L 340.400 138.800 342.800 138.800 L 345.200 138.800 345.200 141.180 L 345.200 143.560 342.998 143.713 L 340.796 143.866 343.098 143.833 L 345.400 143.800 345.400 141.200 L 345.400 138.600 342.895 138.481 C 341.019 138.392,340.335 138.504,340.172 138.928 M321.100 143.889 C 321.815 143.978,322.985 143.978,323.700 143.889 C 324.415 143.801,323.830 143.728,322.400 143.728 C 320.970 143.728,320.385 143.801,321.100 143.889 M226.867 145.500 L 225.365 147.000 226.782 145.801 C 227.562 145.142,228.371 144.467,228.580 144.301 C 228.789 144.135,228.827 144.000,228.665 144.000 C 228.502 144.000,227.693 144.675,226.867 145.500 M235.600 144.511 C 235.600 144.587,236.185 145.078,236.900 145.601 C 237.704 146.190,237.984 146.287,237.633 145.855 C 237.100 145.199,235.600 144.207,235.600 144.511 M179.000 148.800 C 180.306 150.120,181.465 151.200,181.575 151.200 C 181.685 151.200,180.706 150.120,179.400 148.800 C 178.094 147.480,176.935 146.400,176.825 146.400 C 176.715 146.400,177.694 147.480,179.000 148.800 M252.300 148.700 C 259.395 148.761,271.005 148.761,278.100 148.700 C 285.195 148.639,279.390 148.589,265.200 148.589 C 251.010 148.589,245.205 148.639,252.300 148.700 M302.282 148.685 L 304.764 148.837 304.914 151.519 L 305.064 154.200 305.032 151.400 L 305.000 148.600 302.400 148.566 L 299.800 148.533 302.282 148.685 M312.282 148.696 L 314.764 148.837 314.904 151.519 L 315.043 154.200 315.122 151.300 L 315.200 148.400 312.500 148.477 L 309.800 148.554 312.282 148.696 M322.682 148.691 L 325.164 148.836 325.309 151.318 L 325.455 153.800 325.427 151.200 L 325.400 148.600 322.800 148.573 L 320.200 148.545 322.682 148.691 M330.078 151.282 L 330.157 154.200 330.297 151.500 L 330.437 148.800 332.852 148.800 L 335.268 148.800 335.134 151.382 C 335.060 152.802,335.145 153.818,335.322 153.640 C 335.499 153.462,335.589 152.255,335.522 150.958 L 335.400 148.600 332.700 148.482 L 330.000 148.363 330.078 151.282 M340.173 148.926 C 340.054 149.236,340.022 150.549,340.103 151.845 L 340.249 154.200 340.324 151.500 L 340.400 148.800 342.782 148.800 L 345.163 148.800 345.314 151.500 L 345.464 154.200 345.432 151.400 L 345.400 148.600 342.895 148.481 C 341.025 148.392,340.335 148.505,340.173 148.926 M321.507 158.690 C 322.226 158.779,323.306 158.777,323.907 158.686 C 324.508 158.595,323.920 158.522,322.600 158.524 C 321.280 158.526,320.788 158.601,321.507 158.690 M304.874 161.081 L 304.800 163.562 302.300 163.704 L 299.800 163.846 302.313 163.923 C 305.219 164.012,305.314 163.903,305.097 160.752 L 304.948 158.600 304.874 161.081 M314.800 161.181 L 314.800 163.562 312.300 163.704 L 309.800 163.846 312.500 163.923 L 315.200 164.000 315.200 161.400 C 315.200 159.970,315.110 158.800,315.000 158.800 C 314.890 158.800,314.800 159.871,314.800 161.181 M325.276 161.282 L 325.200 163.963 322.500 164.103 L 319.800 164.243 322.513 164.322 C 325.662 164.413,325.708 164.360,325.497 160.955 L 325.351 158.600 325.276 161.282 M330.077 161.318 L 330.000 164.037 332.700 163.918 L 335.400 163.800 335.523 161.643 C 335.590 160.456,335.500 159.340,335.323 159.161 C 335.145 158.983,335.061 159.909,335.136 161.218 L 335.271 163.600 332.855 163.600 L 330.438 163.600 330.296 161.100 L 330.154 158.600 330.077 161.318 M340.081 161.300 L 340.200 163.800 342.800 163.800 L 345.400 163.800 345.434 161.200 L 345.467 158.600 345.315 161.100 L 345.162 163.600 342.745 163.600 L 340.329 163.600 340.464 161.199 C 340.539 159.879,340.456 158.799,340.281 158.799 C 340.105 158.800,340.015 159.925,340.081 161.300 M140.100 160.676 C 140.485 160.776,141.115 160.776,141.500 160.676 C 141.885 160.575,141.570 160.493,140.800 160.493 C 140.030 160.493,139.715 160.575,140.100 160.676 M214.400 167.049 C 214.400 167.729,215.902 168.903,216.477 168.673 C 216.826 168.533,216.775 168.453,216.323 168.432 C 215.950 168.414,215.365 168.000,215.023 167.511 C 214.680 167.022,214.400 166.814,214.400 167.049 M335.264 177.476 C 335.229 179.498,335.335 181.237,335.500 181.339 C 335.665 181.442,335.750 180.328,335.690 178.863 C 335.497 174.223,335.330 173.679,335.264 177.476 M339.997 177.682 C 339.889 179.817,339.942 181.420,340.116 181.245 C 340.291 181.070,340.379 179.323,340.314 177.364 L 340.194 173.800 339.997 177.682 M229.340 177.600 C 229.340 179.470,229.409 180.235,229.493 179.300 C 229.577 178.365,229.577 176.835,229.493 175.900 C 229.409 174.965,229.340 175.730,229.340 177.600 M329.997 177.882 C 329.889 179.907,329.943 181.420,330.117 181.245 C 330.292 181.069,330.380 179.412,330.314 177.563 L 330.194 174.200 329.997 177.882 M345.264 177.676 C 345.229 179.588,345.335 181.237,345.500 181.339 C 345.665 181.442,345.750 180.418,345.689 179.063 C 345.489 174.652,345.329 174.130,345.264 177.676 M285.132 186.798 C 352.785 186.996,354.075 187.014,354.632 187.776 C 354.945 188.204,355.200 188.349,355.200 188.099 C 355.200 186.337,357.720 186.394,284.811 186.498 L 216.200 186.595 285.132 186.798 M355.382 204.200 C 355.382 212.780,355.435 216.233,355.500 211.874 C 355.564 207.514,355.564 200.494,355.499 196.274 C 355.435 192.053,355.382 195.620,355.382 204.200 M302.598 191.487 L 304.800 191.640 304.800 194.001 L 304.800 196.362 302.500 196.509 L 300.200 196.657 302.600 196.629 L 305.000 196.600 305.000 194.000 L 305.000 191.400 302.698 191.367 L 300.396 191.334 302.598 191.487 M312.700 191.483 L 314.800 191.642 314.800 194.001 L 314.800 196.360 312.500 196.516 L 310.200 196.672 312.600 196.636 L 315.000 196.600 315.000 194.000 L 315.000 191.400 312.800 191.362 L 310.600 191.324 312.700 191.483 M321.507 191.490 C 322.226 191.579,323.306 191.577,323.907 191.486 C 324.508 191.395,323.920 191.322,322.600 191.324 C 321.280 191.326,320.788 191.401,321.507 191.490 M331.700 191.487 C 332.305 191.578,333.295 191.578,333.900 191.487 C 334.505 191.395,334.010 191.320,332.800 191.320 C 331.590 191.320,331.095 191.395,331.700 191.487 M339.765 191.748 C 339.649 192.049,339.621 193.264,339.703 194.448 L 339.852 196.600 339.926 194.133 C 339.972 192.595,340.188 191.591,340.500 191.465 C 340.892 191.307,340.889 191.256,340.487 191.232 C 340.206 191.214,339.880 191.446,339.765 191.748 M342.105 191.487 C 342.714 191.579,343.614 191.577,344.105 191.482 C 344.597 191.387,344.100 191.311,343.000 191.314 C 341.900 191.317,341.497 191.395,342.105 191.487 M325.274 193.882 L 325.200 196.363 322.500 196.503 L 319.800 196.643 322.513 196.722 C 325.641 196.812,325.716 196.732,325.497 193.552 L 325.348 191.400 325.274 193.882 M330.166 194.000 L 330.200 196.600 332.502 196.633 L 334.804 196.666 332.621 196.513 L 330.437 196.361 330.285 193.881 L 330.133 191.400 330.166 194.000 M335.328 194.000 C 335.328 195.430,335.401 196.015,335.489 195.300 C 335.578 194.585,335.578 193.415,335.489 192.700 C 335.401 191.985,335.328 192.570,335.328 194.000 M345.331 194.200 C 345.333 195.740,345.405 196.321,345.492 195.491 C 345.579 194.661,345.577 193.401,345.489 192.691 C 345.400 191.981,345.329 192.660,345.331 194.200 M66.087 206.500 C 66.135 214.475,66.224 218.750,66.285 216.000 C 66.566 203.388,66.573 191.999,66.300 192.000 C 66.135 192.000,66.039 198.525,66.087 206.500 M95.500 192.300 C 103.255 192.361,115.945 192.361,123.700 192.300 C 131.455 192.239,125.110 192.189,109.600 192.189 C 94.090 192.189,87.745 192.239,95.500 192.300 M304.874 203.881 L 304.800 206.362 302.300 206.504 L 299.800 206.646 302.313 206.723 C 305.219 206.812,305.314 206.703,305.097 203.552 L 304.948 201.400 304.874 203.881 M314.800 203.981 L 314.800 206.362 312.300 206.504 L 309.800 206.646 312.500 206.723 L 315.200 206.800 315.200 204.200 C 315.200 202.770,315.110 201.600,315.000 201.600 C 314.890 201.600,314.800 202.671,314.800 203.981 M325.135 203.980 L 325.269 206.362 322.633 206.511 L 319.997 206.659 322.698 206.630 L 325.400 206.600 325.519 204.100 C 325.585 202.725,325.495 201.600,325.319 201.599 C 325.144 201.599,325.061 202.670,325.135 203.980 M330.077 204.118 L 330.000 206.837 332.700 206.718 L 335.400 206.600 335.523 204.443 C 335.590 203.256,335.500 202.140,335.323 201.961 C 335.145 201.783,335.061 202.709,335.136 204.018 L 335.271 206.400 332.855 206.400 L 330.438 206.400 330.296 203.900 L 330.154 201.400 330.077 204.118 M340.081 204.100 L 340.200 206.600 342.800 206.600 L 345.400 206.600 345.434 204.000 L 345.467 201.400 345.315 203.900 L 345.162 206.400 342.745 206.400 L 340.329 206.400 340.464 203.999 C 340.539 202.679,340.456 201.599,340.281 201.599 C 340.105 201.600,340.015 202.725,340.081 204.100 M252.529 206.700 C 259.750 206.761,271.450 206.761,278.529 206.700 C 285.608 206.639,279.700 206.589,265.400 206.589 C 251.100 206.589,245.308 206.639,252.529 206.700 M180.400 210.600 C 181.595 211.810,182.663 212.800,182.773 212.800 C 182.883 212.800,181.995 211.810,180.800 210.600 C 179.605 209.390,178.537 208.400,178.427 208.400 C 178.317 208.400,179.205 209.390,180.400 210.600 M302.281 211.885 L 304.763 212.037 304.910 214.319 L 305.057 216.600 305.029 214.200 L 305.000 211.800 302.400 211.766 L 299.800 211.733 302.281 211.885 M312.281 211.896 L 314.763 212.037 314.904 214.519 L 315.046 217.000 315.123 214.300 L 315.200 211.600 312.500 211.677 L 309.800 211.754 312.281 211.896 M322.681 211.890 L 325.163 212.036 325.310 214.318 L 325.457 216.600 325.429 214.200 L 325.400 211.800 322.800 211.773 L 320.200 211.745 322.681 211.890 M330.077 214.282 L 330.154 217.000 330.296 214.500 L 330.438 212.000 332.855 212.000 L 335.271 212.000 335.136 214.382 C 335.061 215.691,335.145 216.617,335.323 216.439 C 335.500 216.260,335.590 215.144,335.523 213.957 L 335.400 211.800 332.700 211.682 L 330.000 211.563 330.077 214.282 M340.172 212.128 C 340.052 212.440,340.021 213.664,340.103 214.848 L 340.252 217.000 340.326 214.500 L 340.400 212.000 342.781 212.000 L 345.162 212.000 345.309 214.300 L 345.457 216.600 345.429 214.200 L 345.400 211.800 342.895 211.681 C 341.019 211.592,340.335 211.704,340.172 212.128 M139.905 221.083 C 140.402 221.179,141.122 221.175,141.505 221.075 C 141.887 220.975,141.480 220.896,140.600 220.901 C 139.720 220.905,139.407 220.987,139.905 221.083 M229.467 227.067 C 229.099 227.435,229.129 233.909,229.500 234.138 C 229.665 234.240,229.800 232.631,229.800 230.562 C 229.800 228.493,229.785 226.800,229.767 226.800 C 229.748 226.800,229.613 226.920,229.467 227.067 M339.997 230.518 L 340.194 234.200 340.314 230.837 C 340.380 228.988,340.292 227.331,340.117 227.155 C 339.943 226.980,339.889 228.493,339.997 230.518 M330.142 230.600 C 330.141 232.580,330.208 233.440,330.292 232.512 C 330.376 231.584,330.377 229.964,330.295 228.912 C 330.212 227.860,330.143 228.620,330.142 230.600 M335.342 230.600 C 335.341 232.580,335.408 233.440,335.492 232.512 C 335.576 231.584,335.577 229.964,335.495 228.912 C 335.412 227.860,335.343 228.620,335.342 230.600 M345.342 230.600 C 345.341 232.580,345.408 233.440,345.492 232.512 C 345.576 231.584,345.577 229.964,345.495 228.912 C 345.412 227.860,345.343 228.620,345.342 230.600 M211.178 236.700 L 209.800 238.200 211.300 236.822 C 212.125 236.063,212.800 235.388,212.800 235.322 C 212.800 235.016,212.462 235.304,211.178 236.700 M250.932 239.500 C 269.814 239.557,300.594 239.557,319.332 239.500 C 338.069 239.442,322.620 239.395,285.000 239.395 C 247.380 239.395,232.049 239.442,250.932 239.500 M355.382 257.000 C 355.382 265.580,355.435 269.033,355.500 264.674 C 355.564 260.314,355.564 253.294,355.499 249.074 C 355.435 244.853,355.382 248.420,355.382 257.000 M304.931 247.000 C 304.933 248.540,305.005 249.121,305.092 248.291 C 305.179 247.461,305.177 246.201,305.089 245.491 C 305.000 244.781,304.929 245.460,304.931 247.000 M314.931 247.000 C 314.933 248.540,315.005 249.121,315.092 248.291 C 315.179 247.461,315.177 246.201,315.089 245.491 C 315.000 244.781,314.929 245.460,314.931 247.000 M325.000 247.000 C 325.000 248.388,325.135 249.440,325.300 249.338 C 325.465 249.236,325.600 248.184,325.600 247.000 C 325.600 245.816,325.465 244.764,325.300 244.662 C 325.135 244.560,325.000 245.612,325.000 247.000 M330.054 247.100 C 330.111 249.898,330.279 249.587,330.486 246.300 C 330.552 245.255,330.469 244.400,330.303 244.400 C 330.136 244.400,330.025 245.615,330.054 247.100 M335.000 247.000 C 335.000 248.388,335.135 249.440,335.300 249.338 C 335.465 249.236,335.600 248.184,335.600 247.000 C 335.600 245.816,335.465 244.764,335.300 244.662 C 335.135 244.560,335.000 245.612,335.000 247.000 M340.000 247.000 C 340.000 248.430,340.135 249.600,340.300 249.600 C 340.465 249.600,340.600 248.430,340.600 247.000 C 340.600 245.570,340.465 244.400,340.300 244.400 C 340.135 244.400,340.000 245.570,340.000 247.000 M345.114 246.300 C 345.321 249.587,345.489 249.898,345.546 247.100 C 345.575 245.615,345.464 244.400,345.297 244.400 C 345.131 244.400,345.048 245.255,345.114 246.300 M231.100 249.482 C 231.595 249.578,232.405 249.578,232.900 249.482 C 233.395 249.387,232.990 249.309,232.000 249.309 C 231.010 249.309,230.605 249.387,231.100 249.482 M76.731 250.700 C 88.242 250.759,106.962 250.759,118.331 250.700 C 129.699 250.641,120.280 250.593,97.400 250.593 C 74.520 250.593,65.219 250.641,76.731 250.700 M304.876 256.881 L 304.800 259.562 302.300 259.704 L 299.800 259.846 302.313 259.923 C 305.239 260.013,305.307 259.931,305.097 256.555 L 304.951 254.200 304.876 256.881 M314.876 256.936 L 314.800 259.671 312.437 259.536 C 311.137 259.461,310.158 259.535,310.261 259.700 C 310.607 260.256,314.809 260.041,315.034 259.455 C 315.149 259.156,315.178 257.851,315.097 256.555 L 314.951 254.200 314.876 256.936 M325.133 256.999 L 325.267 259.562 322.533 259.713 L 319.800 259.864 322.600 259.832 L 325.400 259.800 325.522 257.442 C 325.589 256.145,325.499 254.938,325.322 254.760 C 325.145 254.582,325.060 255.590,325.133 256.999 M330.173 257.200 L 330.200 259.800 332.502 259.833 L 334.804 259.866 332.620 259.713 L 330.436 259.561 330.290 257.081 L 330.145 254.600 330.173 257.200 M335.195 257.118 L 335.390 259.800 335.517 257.442 C 335.586 256.145,335.499 254.938,335.322 254.760 C 335.145 254.582,335.088 255.643,335.195 257.118 M340.165 254.948 C 340.049 255.249,340.010 256.464,340.077 257.648 L 340.200 259.800 342.800 259.800 L 345.400 259.800 345.432 257.000 L 345.464 254.200 345.314 256.900 L 345.163 259.600 342.748 259.600 L 340.332 259.600 340.466 256.999 C 340.602 254.362,340.543 253.961,340.165 254.948 M224.432 259.224 C 224.414 259.566,224.680 260.196,225.022 260.624 C 225.634 261.388,225.638 261.387,225.276 260.600 C 225.074 260.160,224.808 259.530,224.686 259.200 C 224.493 258.682,224.459 258.685,224.432 259.224 M239.062 259.900 C 238.893 260.172,257.565 260.168,281.400 259.891 C 286.460 259.833,279.046 259.743,264.924 259.692 C 250.802 259.642,239.164 259.735,239.062 259.900 M230.900 264.687 C 231.505 264.778,232.495 264.778,233.100 264.687 C 233.705 264.595,233.210 264.520,232.000 264.520 C 230.790 264.520,230.295 264.595,230.900 264.687 M302.300 264.685 L 304.800 264.838 304.800 267.200 L 304.800 269.562 302.300 269.715 L 299.800 269.867 302.400 269.834 L 305.000 269.800 305.000 267.200 L 305.000 264.600 302.400 264.566 L 299.800 264.533 302.300 264.685 M312.300 264.696 L 314.800 264.838 314.800 267.255 L 314.800 269.671 312.418 269.536 C 311.109 269.461,310.183 269.545,310.361 269.723 C 310.540 269.900,311.656 269.990,312.843 269.923 L 315.000 269.800 315.118 267.100 L 315.237 264.400 312.518 264.477 L 309.800 264.554 312.300 264.696 M322.700 264.691 L 325.200 264.837 325.200 267.200 L 325.200 269.563 322.500 269.714 L 319.800 269.864 322.600 269.832 L 325.400 269.800 325.400 267.200 L 325.400 264.600 322.800 264.573 L 320.200 264.545 322.700 264.691 M330.172 264.928 C 330.052 265.240,330.010 266.464,330.077 267.648 L 330.200 269.800 331.968 269.926 C 335.353 270.168,335.654 269.928,335.519 267.088 L 335.400 264.600 332.895 264.481 C 331.019 264.392,330.335 264.504,330.172 264.928 M340.172 264.928 C 340.052 265.240,340.010 266.464,340.077 267.648 L 340.200 269.800 342.800 269.800 L 345.400 269.800 345.400 267.200 L 345.400 264.600 342.895 264.481 C 341.019 264.392,340.335 264.504,340.172 264.928 M335.120 267.100 L 335.000 269.400 332.700 269.520 L 330.400 269.640 330.400 267.220 L 330.400 264.800 332.820 264.800 L 335.240 264.800 335.120 267.100 M345.200 267.200 L 345.200 269.600 342.800 269.600 L 340.400 269.600 340.400 267.200 L 340.400 264.800 342.800 264.800 L 345.200 264.800 345.200 267.200 M250.732 274.700 C 269.724 274.757,300.684 274.757,319.532 274.700 C 338.379 274.642,322.840 274.595,285.000 274.595 C 247.160 274.595,231.739 274.643,250.732 274.700 M357.800 277.868 C 356.920 278.657,356.560 279.116,357.000 278.888 C 357.741 278.504,359.951 276.379,359.570 276.417 C 359.476 276.426,358.680 277.079,357.800 277.868 M134.112 279.095 C 135.164 279.177,136.784 279.176,137.712 279.092 C 138.640 279.008,137.780 278.941,135.800 278.942 C 133.820 278.943,133.060 279.012,134.112 279.095 M249.700 279.900 C 269.005 279.957,300.595 279.957,319.900 279.900 C 339.205 279.843,323.410 279.796,284.800 279.796 C 246.190 279.796,230.395 279.843,249.700 279.900 " stroke="none" fill="#f1daa2" fill-rule="evenodd"></path><path id="path3" d="M134.300 131.882 C 134.795 131.978,135.605 131.978,136.100 131.882 C 136.595 131.787,136.190 131.709,135.200 131.709 C 134.210 131.709,133.805 131.787,134.300 131.882 M360.582 149.800 C 360.582 158.600,360.635 162.143,360.700 157.673 C 360.764 153.204,360.764 146.004,360.699 141.673 C 360.635 137.343,360.582 141.000,360.582 149.800 M208.983 151.200 C 208.983 160.550,209.036 164.375,209.100 159.700 C 209.164 155.025,209.164 147.375,209.100 142.700 C 209.036 138.025,208.983 141.850,208.983 151.200 M299.728 141.200 C 299.728 142.630,299.801 143.215,299.889 142.500 C 299.978 141.785,299.978 140.615,299.889 139.900 C 299.801 139.185,299.728 139.770,299.728 141.200 M315.320 141.200 C 315.320 142.410,315.395 142.905,315.487 142.300 C 315.578 141.695,315.578 140.705,315.487 140.100 C 315.395 139.495,315.320 139.990,315.320 141.200 M319.724 141.400 C 319.726 142.720,319.801 143.212,319.890 142.493 C 319.979 141.774,319.977 140.694,319.886 140.093 C 319.795 139.492,319.722 140.080,319.724 141.400 M299.731 151.400 C 299.733 152.940,299.805 153.521,299.892 152.691 C 299.979 151.861,299.977 150.601,299.889 149.891 C 299.800 149.181,299.729 149.860,299.731 151.400 M315.328 151.200 C 315.328 152.630,315.401 153.215,315.489 152.500 C 315.578 151.785,315.578 150.615,315.489 149.900 C 315.401 149.185,315.328 149.770,315.328 151.200 M319.731 151.400 C 319.733 152.940,319.805 153.521,319.892 152.691 C 319.979 151.861,319.977 150.601,319.889 149.891 C 319.800 149.181,319.729 149.860,319.731 151.400 M299.765 158.948 C 299.649 159.249,299.621 160.464,299.703 161.648 L 299.852 163.800 299.926 161.319 L 300.000 158.838 302.500 158.696 L 305.000 158.554 302.487 158.477 C 300.674 158.421,299.916 158.552,299.765 158.948 M311.100 158.689 C 311.815 158.778,312.985 158.778,313.700 158.689 C 314.415 158.601,313.830 158.528,312.400 158.528 C 310.970 158.528,310.385 158.601,311.100 158.689 M319.766 158.945 C 319.651 159.244,319.614 160.549,319.684 161.845 L 319.812 164.200 320.006 161.299 C 320.201 158.388,320.154 157.933,319.766 158.945 M331.000 158.638 C 332.874 158.939,335.509 158.977,335.338 158.700 C 335.236 158.535,334.038 158.425,332.676 158.454 C 331.314 158.484,330.560 158.567,331.000 158.638 M341.500 158.689 C 342.215 158.778,343.385 158.778,344.100 158.689 C 344.815 158.601,344.230 158.528,342.800 158.528 C 341.370 158.528,340.785 158.601,341.500 158.689 M230.900 159.087 C 231.505 159.178,232.495 159.178,233.100 159.087 C 233.705 158.995,233.210 158.920,232.000 158.920 C 230.790 158.920,230.295 158.995,230.900 159.087 M315.320 161.200 C 315.320 162.410,315.395 162.905,315.487 162.300 C 315.578 161.695,315.578 160.705,315.487 160.100 C 315.395 159.495,315.320 159.990,315.320 161.200 M137.100 160.682 C 137.595 160.778,138.405 160.778,138.900 160.682 C 139.395 160.587,138.990 160.509,138.000 160.509 C 137.010 160.509,136.605 160.587,137.100 160.682 M250.932 168.700 C 269.814 168.757,300.594 168.757,319.332 168.700 C 338.069 168.642,322.620 168.595,285.000 168.595 C 247.380 168.595,232.049 168.642,250.932 168.700 M358.175 172.100 L 357.000 173.400 358.300 172.225 C 359.015 171.579,359.600 170.994,359.600 170.925 C 359.600 170.616,359.270 170.888,358.175 172.100 M190.909 174.400 C 190.909 175.390,190.987 175.795,191.082 175.300 C 191.178 174.805,191.178 173.995,191.082 173.500 C 190.987 173.005,190.909 173.410,190.909 174.400 M219.684 174.293 L 223.968 174.426 224.108 177.513 L 224.248 180.600 224.224 177.400 L 224.200 174.200 219.800 174.180 L 215.400 174.161 219.684 174.293 M231.782 174.287 L 233.968 174.439 234.108 177.519 L 234.248 180.600 234.224 177.400 L 234.200 174.200 231.898 174.167 L 229.596 174.134 231.782 174.287 M239.769 174.535 C 239.656 174.830,239.617 176.495,239.682 178.235 L 239.800 181.400 284.700 181.403 L 329.600 181.405 284.800 181.301 L 240.000 181.197 240.000 177.800 L 240.000 174.403 285.100 174.300 L 330.200 174.197 285.087 174.098 C 247.709 174.017,239.940 174.092,239.769 174.535 M336.707 174.290 C 337.426 174.379,338.506 174.377,339.107 174.286 C 339.708 174.195,339.120 174.122,337.800 174.124 C 336.480 174.126,335.988 174.201,336.707 174.290 M347.700 174.296 C 348.965 174.375,351.035 174.375,352.300 174.296 C 353.565 174.216,352.530 174.151,350.000 174.151 C 347.470 174.151,346.435 174.216,347.700 174.296 M190.909 178.000 C 190.909 178.990,190.987 179.395,191.082 178.900 C 191.178 178.405,191.178 177.595,191.082 177.100 C 190.987 176.605,190.909 177.010,190.909 178.000 M229.963 181.324 C 230.142 181.503,231.169 181.590,232.244 181.518 L 234.200 181.387 231.919 181.194 C 230.664 181.087,229.784 181.146,229.963 181.324 M217.116 181.497 C 218.499 181.575,220.659 181.574,221.916 181.495 C 223.172 181.416,222.040 181.352,219.400 181.353 C 216.760 181.353,215.732 181.418,217.116 181.497 M336.905 181.487 C 337.514 181.579,338.414 181.577,338.905 181.482 C 339.397 181.387,338.900 181.311,337.800 181.314 C 336.700 181.317,336.297 181.395,336.905 181.487 M348.100 181.496 C 349.365 181.575,351.435 181.575,352.700 181.496 C 353.965 181.416,352.930 181.351,350.400 181.351 C 347.870 181.351,346.835 181.416,348.100 181.496 M360.582 203.000 C 360.582 211.800,360.635 215.343,360.700 210.873 C 360.764 206.404,360.764 199.204,360.699 194.873 C 360.635 190.543,360.582 194.200,360.582 203.000 M208.983 204.200 C 208.983 213.440,209.036 217.163,209.100 212.473 C 209.164 207.783,209.164 200.223,209.099 195.673 C 209.035 191.123,208.983 194.960,208.983 204.200 M299.765 191.748 C 299.649 192.049,299.613 193.264,299.684 194.448 L 299.813 196.600 300.007 193.899 C 300.201 191.181,300.152 190.739,299.765 191.748 M315.000 194.000 C 315.000 195.498,315.135 196.640,315.300 196.538 C 315.465 196.436,315.600 195.294,315.600 194.000 C 315.600 192.706,315.465 191.564,315.300 191.462 C 315.135 191.360,315.000 192.502,315.000 194.000 M319.765 191.748 C 319.649 192.049,319.613 193.264,319.684 194.448 L 319.813 196.600 320.007 193.899 C 320.201 191.181,320.152 190.739,319.765 191.748 M339.959 196.921 C 340.136 197.097,341.433 197.185,342.841 197.116 L 345.400 196.991 342.518 196.795 C 340.933 196.688,339.781 196.744,339.959 196.921 M180.778 201.900 L 179.400 203.400 180.900 202.022 C 182.296 200.738,182.584 200.400,182.278 200.400 C 182.212 200.400,181.537 201.075,180.778 201.900 M251.900 201.500 C 258.995 201.561,270.605 201.561,277.700 201.500 C 284.795 201.439,278.990 201.389,264.800 201.389 C 250.610 201.389,244.805 201.439,251.900 201.500 M301.300 201.487 C 301.905 201.578,302.895 201.578,303.500 201.487 C 304.105 201.395,303.610 201.320,302.400 201.320 C 301.190 201.320,300.695 201.395,301.300 201.487 M311.700 201.487 C 312.305 201.578,313.295 201.578,313.900 201.487 C 314.505 201.395,314.010 201.320,312.800 201.320 C 311.590 201.320,311.095 201.395,311.700 201.487 M321.507 201.490 C 322.226 201.579,323.306 201.577,323.907 201.486 C 324.508 201.395,323.920 201.322,322.600 201.324 C 321.280 201.326,320.788 201.401,321.507 201.490 M331.700 201.487 C 332.305 201.578,333.295 201.578,333.900 201.487 C 334.505 201.395,334.010 201.320,332.800 201.320 C 331.590 201.320,331.095 201.395,331.700 201.487 M341.700 201.487 C 342.305 201.578,343.295 201.578,343.900 201.487 C 344.505 201.395,344.010 201.320,342.800 201.320 C 341.590 201.320,341.095 201.395,341.700 201.487 M299.728 204.000 C 299.728 205.430,299.801 206.015,299.889 205.300 C 299.978 204.585,299.978 203.415,299.889 202.700 C 299.801 201.985,299.728 202.570,299.728 204.000 M315.324 204.200 C 315.326 205.520,315.401 206.012,315.490 205.293 C 315.579 204.574,315.577 203.494,315.486 202.893 C 315.395 202.292,315.322 202.880,315.324 204.200 M319.724 204.200 C 319.726 205.520,319.801 206.012,319.890 205.293 C 319.979 204.574,319.977 203.494,319.886 202.893 C 319.795 202.292,319.722 202.880,319.724 204.200 M239.062 207.100 C 238.893 207.372,257.565 207.368,281.400 207.091 C 286.460 207.033,279.046 206.943,264.924 206.892 C 250.802 206.842,239.164 206.935,239.062 207.100 M301.300 207.087 C 301.905 207.178,302.895 207.178,303.500 207.087 C 304.105 206.995,303.610 206.920,302.400 206.920 C 301.190 206.920,300.695 206.995,301.300 207.087 M311.700 207.087 C 312.305 207.178,313.295 207.178,313.900 207.087 C 314.505 206.995,314.010 206.920,312.800 206.920 C 311.590 206.920,311.095 206.995,311.700 207.087 M321.700 207.087 C 322.305 207.178,323.295 207.178,323.900 207.087 C 324.505 206.995,324.010 206.920,322.800 206.920 C 321.590 206.920,321.095 206.995,321.700 207.087 M331.700 207.087 C 332.305 207.178,333.295 207.178,333.900 207.087 C 334.505 206.995,334.010 206.920,332.800 206.920 C 331.590 206.920,331.095 206.995,331.700 207.087 M341.700 207.087 C 342.305 207.178,343.295 207.178,343.900 207.087 C 344.505 206.995,344.010 206.920,342.800 206.920 C 341.590 206.920,341.095 206.995,341.700 207.087 M299.766 214.400 L 299.800 217.000 302.200 217.029 L 304.600 217.057 302.319 216.910 L 300.037 216.763 299.885 214.281 L 299.733 211.800 299.766 214.400 M319.724 214.200 C 319.726 215.520,319.801 216.012,319.890 215.293 C 319.979 214.574,319.977 213.494,319.886 212.893 C 319.795 212.292,319.722 212.880,319.724 214.200 M315.320 214.400 C 315.320 215.610,315.395 216.105,315.487 215.500 C 315.578 214.895,315.578 213.905,315.487 213.300 C 315.395 212.695,315.320 213.190,315.320 214.400 M332.800 216.800 L 330.200 217.062 332.676 217.131 C 334.038 217.169,335.264 217.020,335.400 216.800 C 335.536 216.580,335.592 216.431,335.524 216.469 C 335.456 216.507,334.230 216.656,332.800 216.800 M311.100 217.089 C 311.815 217.178,312.985 217.178,313.700 217.089 C 314.415 217.001,313.830 216.928,312.400 216.928 C 310.970 216.928,310.385 217.001,311.100 217.089 M321.091 217.089 C 321.801 217.177,323.061 217.179,323.891 217.092 C 324.721 217.005,324.140 216.933,322.600 216.931 C 321.060 216.929,320.381 217.000,321.091 217.089 M341.500 217.089 C 342.215 217.178,343.385 217.178,344.100 217.089 C 344.815 217.001,344.230 216.928,342.800 216.928 C 341.370 216.928,340.785 217.001,341.500 217.089 M84.500 221.100 C 94.565 221.159,111.035 221.159,121.100 221.100 C 131.165 221.040,122.930 220.992,102.800 220.992 C 82.670 220.992,74.435 221.040,84.500 221.100 M219.700 227.093 L 224.000 227.226 224.000 230.600 L 224.000 233.975 219.300 234.108 L 214.600 234.242 219.400 234.221 L 224.200 234.200 224.200 230.600 L 224.200 227.000 219.800 226.980 L 215.400 226.961 219.700 227.093 M231.900 227.083 L 234.000 227.242 234.000 230.600 L 234.000 233.958 231.998 234.114 L 229.995 234.270 232.098 234.235 L 234.200 234.200 234.200 230.600 L 234.200 227.000 232.000 226.962 L 229.800 226.924 231.900 227.083 M239.769 227.335 C 239.656 227.630,239.617 229.295,239.682 231.035 L 239.800 234.200 285.000 234.203 L 330.200 234.205 285.100 234.101 L 240.000 233.997 240.000 230.600 L 240.000 227.203 285.100 227.100 L 330.200 226.997 285.087 226.898 C 247.709 226.817,239.940 226.892,239.769 227.335 M336.500 227.087 C 337.105 227.178,338.095 227.178,338.700 227.087 C 339.305 226.995,338.810 226.920,337.600 226.920 C 336.390 226.920,335.895 226.995,336.500 227.087 M347.700 227.096 C 348.965 227.175,351.035 227.175,352.300 227.096 C 353.565 227.016,352.530 226.951,350.000 226.951 C 347.470 226.951,346.435 227.016,347.700 227.096 M190.909 234.000 C 190.909 234.990,190.987 235.395,191.082 234.900 C 191.178 234.405,191.178 233.595,191.082 233.100 C 190.987 232.605,190.909 233.010,190.909 234.000 M336.707 234.290 C 337.426 234.379,338.506 234.377,339.107 234.286 C 339.708 234.195,339.120 234.122,337.800 234.124 C 336.480 234.126,335.988 234.201,336.707 234.290 M347.916 234.297 C 349.299 234.375,351.459 234.374,352.716 234.295 C 353.972 234.216,352.840 234.152,350.200 234.153 C 347.560 234.153,346.532 234.218,347.916 234.297 M357.200 235.325 C 357.200 235.394,357.785 235.979,358.500 236.625 L 359.800 237.800 358.625 236.500 C 357.530 235.288,357.200 235.016,357.200 235.325 M190.901 237.400 C 190.905 238.280,190.987 238.593,191.083 238.095 C 191.179 237.598,191.175 236.878,191.075 236.495 C 190.975 236.113,190.896 236.520,190.901 237.400 M208.983 257.000 C 208.983 266.460,209.036 270.273,209.100 265.473 C 209.164 260.673,209.163 252.933,209.099 248.273 C 209.036 243.613,208.983 247.540,208.983 257.000 M360.582 255.800 C 360.582 264.600,360.635 268.143,360.700 263.673 C 360.764 259.204,360.764 252.004,360.699 247.673 C 360.635 243.343,360.582 247.000,360.582 255.800 M301.100 244.289 C 301.815 244.378,302.985 244.378,303.700 244.289 C 304.415 244.201,303.830 244.128,302.400 244.128 C 300.970 244.128,300.385 244.201,301.100 244.289 M311.507 244.290 C 312.226 244.379,313.306 244.377,313.907 244.286 C 314.508 244.195,313.920 244.122,312.600 244.124 C 311.280 244.126,310.788 244.201,311.507 244.290 M321.507 244.290 C 322.226 244.379,323.306 244.377,323.907 244.286 C 324.508 244.195,323.920 244.122,322.600 244.124 C 321.280 244.126,320.788 244.201,321.507 244.290 M331.507 244.290 C 332.226 244.379,333.306 244.377,333.907 244.286 C 334.508 244.195,333.920 244.122,332.600 244.124 C 331.280 244.126,330.788 244.201,331.507 244.290 M341.907 244.290 C 342.626 244.379,343.706 244.377,344.307 244.286 C 344.908 244.195,344.320 244.122,343.000 244.124 C 341.680 244.126,341.188 244.201,341.907 244.290 M299.728 247.200 C 299.728 248.630,299.801 249.215,299.889 248.500 C 299.978 247.785,299.978 246.615,299.889 245.900 C 299.801 245.185,299.728 245.770,299.728 247.200 M315.324 247.000 C 315.326 248.320,315.401 248.812,315.490 248.093 C 315.579 247.374,315.577 246.294,315.486 245.693 C 315.395 245.092,315.322 245.680,315.324 247.000 M319.724 247.000 C 319.726 248.320,319.801 248.812,319.890 248.093 C 319.979 247.374,319.977 246.294,319.886 245.693 C 319.795 245.092,319.722 245.680,319.724 247.000 M301.300 249.887 C 301.905 249.978,302.895 249.978,303.500 249.887 C 304.105 249.795,303.610 249.720,302.400 249.720 C 301.190 249.720,300.695 249.795,301.300 249.887 M311.700 249.887 C 312.305 249.978,313.295 249.978,313.900 249.887 C 314.505 249.795,314.010 249.720,312.800 249.720 C 311.590 249.720,311.095 249.795,311.700 249.887 M321.507 249.890 C 322.226 249.979,323.306 249.977,323.907 249.886 C 324.508 249.795,323.920 249.722,322.600 249.724 C 321.280 249.726,320.788 249.801,321.507 249.890 M331.700 249.887 C 332.305 249.978,333.295 249.978,333.900 249.887 C 334.505 249.795,334.010 249.720,332.800 249.720 C 331.590 249.720,331.095 249.795,331.700 249.887 M341.700 249.887 C 342.305 249.978,343.295 249.978,343.900 249.887 C 344.505 249.795,344.010 249.720,342.800 249.720 C 341.590 249.720,341.095 249.795,341.700 249.887 M252.329 254.300 C 259.440 254.361,270.960 254.361,277.929 254.300 C 284.898 254.238,279.080 254.188,265.000 254.188 C 250.920 254.188,245.218 254.239,252.329 254.300 M299.766 254.545 C 299.651 254.844,299.622 256.149,299.703 257.445 L 299.849 259.800 299.924 257.119 L 300.000 254.438 302.500 254.296 L 305.000 254.154 302.487 254.077 C 300.680 254.022,299.916 254.153,299.766 254.545 M311.507 254.290 C 312.226 254.379,313.306 254.377,313.907 254.286 C 314.508 254.195,313.920 254.122,312.600 254.124 C 311.280 254.126,310.788 254.201,311.507 254.290 M320.600 254.239 C 322.441 254.538,325.511 254.578,325.339 254.300 C 325.236 254.135,323.948 254.025,322.476 254.054 C 321.004 254.084,320.160 254.167,320.600 254.239 M331.507 254.290 C 332.226 254.379,333.306 254.377,333.907 254.286 C 334.508 254.195,333.920 254.122,332.600 254.124 C 331.280 254.126,330.788 254.201,331.507 254.290 M341.907 254.290 C 342.626 254.379,343.706 254.377,344.307 254.286 C 344.908 254.195,344.320 254.122,343.000 254.124 C 341.680 254.126,341.188 254.201,341.907 254.290 M315.324 257.000 C 315.326 258.320,315.401 258.812,315.490 258.093 C 315.579 257.374,315.577 256.294,315.486 255.693 C 315.395 255.092,315.322 255.680,315.324 257.000 M319.728 257.200 C 319.728 258.630,319.801 259.215,319.889 258.500 C 319.978 257.785,319.978 256.615,319.889 255.900 C 319.801 255.185,319.728 255.770,319.728 257.200 M299.728 267.200 C 299.728 268.630,299.801 269.215,299.889 268.500 C 299.978 267.785,299.978 266.615,299.889 265.900 C 299.801 265.185,299.728 265.770,299.728 267.200 M315.324 267.000 C 315.326 268.320,315.401 268.812,315.490 268.093 C 315.579 267.374,315.577 266.294,315.486 265.693 C 315.395 265.092,315.322 265.680,315.324 267.000 M319.724 267.000 C 319.726 268.320,319.801 268.812,319.890 268.093 C 319.979 267.374,319.977 266.294,319.886 265.693 C 319.795 265.092,319.722 265.680,319.724 267.000 M210.000 276.525 C 210.000 276.594,210.585 277.179,211.300 277.825 L 212.600 279.000 211.425 277.700 C 210.330 276.488,210.000 276.216,210.000 276.525 M53.100 279.500 C 67.895 279.558,92.105 279.558,106.900 279.500 C 121.695 279.442,109.590 279.394,80.000 279.394 C 50.410 279.394,38.305 279.442,53.100 279.500 " stroke="none" fill="#f8d174" fill-rule="evenodd"></path><path id="path4" d="M249.700 128.300 C 269.005 128.357,300.595 128.357,319.900 128.300 C 339.205 128.243,323.410 128.196,284.800 128.196 C 246.190 128.196,230.395 128.243,249.700 128.300 M356.439 128.900 C 356.535 128.955,357.420 129.720,358.406 130.600 L 360.200 132.200 358.619 130.500 C 357.749 129.565,356.864 128.800,356.652 128.800 C 356.440 128.800,356.344 128.845,356.439 128.900 M53.300 131.500 C 67.985 131.558,92.015 131.558,106.700 131.500 C 121.385 131.442,109.370 131.394,80.000 131.394 C 50.630 131.394,38.615 131.442,53.300 131.500 M360.983 151.200 C 360.983 160.550,361.036 164.375,361.100 159.700 C 361.164 155.025,361.164 147.375,361.100 142.700 C 361.036 138.025,360.983 141.850,360.983 151.200 M214.582 151.200 C 214.582 159.670,214.635 163.135,214.699 158.900 C 214.764 154.665,214.764 147.735,214.699 143.500 C 214.635 139.265,214.582 142.730,214.582 151.200 M354.982 151.200 C 354.982 159.670,355.035 163.135,355.099 158.900 C 355.164 154.665,355.164 147.735,355.099 143.500 C 355.035 139.265,354.982 142.730,354.982 151.200 M305.328 141.200 C 305.328 142.630,305.401 143.215,305.489 142.500 C 305.578 141.785,305.578 140.615,305.489 139.900 C 305.401 139.185,305.328 139.770,305.328 141.200 M309.728 141.200 C 309.728 142.630,309.801 143.215,309.889 142.500 C 309.978 141.785,309.978 140.615,309.889 139.900 C 309.801 139.185,309.728 139.770,309.728 141.200 M329.720 141.200 C 329.720 142.410,329.795 142.905,329.887 142.300 C 329.978 141.695,329.978 140.705,329.887 140.100 C 329.795 139.495,329.720 139.990,329.720 141.200 M230.700 143.489 C 231.415 143.578,232.585 143.578,233.300 143.489 C 234.015 143.401,233.430 143.328,232.000 143.328 C 230.570 143.328,229.985 143.401,230.700 143.489 M236.400 144.525 C 236.400 144.594,236.985 145.179,237.700 145.825 L 239.000 147.000 237.825 145.700 C 236.730 144.488,236.400 144.216,236.400 144.525 M179.200 148.600 C 180.617 150.030,181.867 151.200,181.977 151.200 C 182.087 151.200,181.017 150.030,179.600 148.600 C 178.183 147.170,176.933 146.000,176.823 146.000 C 176.713 146.000,177.783 147.170,179.200 148.600 M252.329 148.300 C 259.440 148.361,270.960 148.361,277.929 148.300 C 284.898 148.238,279.080 148.188,265.000 148.188 C 250.920 148.188,245.218 148.239,252.329 148.300 M299.862 148.300 C 299.760 148.465,300.514 148.547,301.538 148.483 C 304.712 148.284,305.109 148.111,302.524 148.054 C 301.162 148.025,299.964 148.135,299.862 148.300 M309.767 148.542 C 309.652 148.840,309.613 150.235,309.679 151.642 L 309.800 154.200 312.359 154.321 C 313.767 154.387,315.064 154.297,315.241 154.121 C 315.419 153.944,314.312 153.860,312.782 153.933 L 310.000 154.066 310.000 151.200 L 310.000 148.334 312.763 148.467 C 314.283 148.540,315.442 148.465,315.340 148.300 C 314.990 147.738,309.992 147.956,309.767 148.542 M319.861 148.300 C 319.759 148.465,320.603 148.548,321.738 148.484 C 325.147 148.294,325.563 148.112,322.724 148.054 C 321.252 148.025,319.964 148.135,319.861 148.300 M331.091 148.289 C 331.801 148.377,333.061 148.379,333.891 148.292 C 334.721 148.205,334.140 148.133,332.600 148.131 C 331.060 148.129,330.381 148.200,331.091 148.289 M341.500 148.289 C 342.215 148.378,343.385 148.378,344.100 148.289 C 344.815 148.201,344.230 148.128,342.800 148.128 C 341.370 148.128,340.785 148.201,341.500 148.289 M305.277 151.082 L 305.200 153.963 302.500 154.103 L 299.800 154.243 302.513 154.322 C 305.681 154.413,305.701 154.389,305.498 150.758 L 305.354 148.200 305.277 151.082 M329.728 151.200 C 329.728 152.630,329.801 153.215,329.889 152.500 C 329.978 151.785,329.978 150.615,329.889 149.900 C 329.801 149.185,329.728 149.770,329.728 151.200 M292.200 151.402 C 292.200 152.569,292.332 153.316,292.494 153.062 C 292.880 152.455,292.885 149.699,292.500 149.463 C 292.335 149.362,292.200 150.235,292.200 151.402 M239.149 154.700 C 238.663 155.320,238.673 155.343,239.237 154.903 C 239.727 154.521,245.812 154.381,265.437 154.300 L 291.000 154.194 265.349 154.097 C 241.328 154.006,239.663 154.044,239.149 154.700 M321.300 154.291 C 322.125 154.378,323.475 154.378,324.300 154.291 C 325.125 154.205,324.450 154.134,322.800 154.134 C 321.150 154.134,320.475 154.205,321.300 154.291 M331.091 154.289 C 331.801 154.377,333.061 154.379,333.891 154.292 C 334.721 154.205,334.140 154.133,332.600 154.131 C 331.060 154.129,330.381 154.200,331.091 154.289 M341.491 154.289 C 342.201 154.377,343.461 154.379,344.291 154.292 C 345.121 154.205,344.540 154.133,343.000 154.131 C 341.460 154.129,340.781 154.200,341.491 154.289 M305.195 161.118 L 305.390 163.800 305.517 161.442 C 305.586 160.145,305.499 158.938,305.322 158.760 C 305.145 158.582,305.088 159.643,305.195 161.118 M309.731 161.400 C 309.733 162.940,309.805 163.521,309.892 162.691 C 309.979 161.861,309.977 160.601,309.889 159.891 C 309.800 159.181,309.729 159.860,309.731 161.400 M329.720 161.200 C 329.720 162.410,329.795 162.905,329.887 162.300 C 329.978 161.695,329.978 160.705,329.887 160.100 C 329.795 159.495,329.720 159.990,329.720 161.200 M76.300 160.700 C 87.355 160.759,105.445 160.759,116.500 160.700 C 127.555 160.641,118.510 160.592,96.400 160.592 C 74.290 160.592,65.245 160.641,76.300 160.700 M55.793 205.600 C 55.793 230.350,55.841 240.475,55.900 228.100 C 55.959 215.725,55.959 195.475,55.900 183.100 C 55.841 170.725,55.793 180.850,55.793 205.600 M140.100 161.076 C 140.485 161.176,141.115 161.176,141.500 161.076 C 141.885 160.975,141.570 160.893,140.800 160.893 C 140.030 160.893,139.715 160.975,140.100 161.076 M319.959 164.521 C 320.136 164.697,321.433 164.785,322.841 164.716 L 325.400 164.591 322.518 164.395 C 320.933 164.288,319.781 164.344,319.959 164.521 M211.287 172.205 C 212.104 173.060,212.838 173.679,212.917 173.580 C 212.997 173.481,212.328 172.781,211.431 172.025 L 209.800 170.650 211.287 172.205 M229.660 177.476 C 229.627 179.278,229.735 180.837,229.900 180.939 C 230.065 181.042,230.150 180.018,230.088 178.663 C 229.900 174.522,229.723 174.031,229.660 177.476 M329.529 177.801 C 329.458 179.671,329.535 181.201,329.700 181.201 C 329.865 181.200,330.000 179.670,330.000 177.800 C 330.000 173.407,329.697 173.407,329.529 177.801 M285.000 187.198 C 322.840 187.309,354.070 187.548,354.400 187.730 C 354.730 187.911,354.651 187.776,354.224 187.430 C 353.523 186.861,346.757 186.810,284.824 186.898 L 216.200 186.995 285.000 187.198 M360.983 204.200 C 360.983 213.440,361.036 217.163,361.100 212.473 C 361.164 207.783,361.164 200.223,361.099 195.673 C 361.035 191.123,360.983 194.960,360.983 204.200 M214.581 204.200 C 214.581 212.560,214.634 216.037,214.699 211.926 C 214.764 207.816,214.764 200.976,214.700 196.726 C 214.635 192.477,214.582 195.840,214.581 204.200 M354.981 204.200 C 354.981 212.560,355.034 216.037,355.099 211.926 C 355.164 207.816,355.164 200.976,355.100 196.726 C 355.035 192.477,354.982 195.840,354.981 204.200 M299.861 191.100 C 299.758 191.265,300.873 191.400,302.337 191.400 L 305.000 191.400 305.231 194.000 L 305.462 196.600 305.531 194.180 C 305.572 192.742,305.405 191.565,305.120 191.280 C 304.600 190.760,300.166 190.608,299.861 191.100 M311.100 191.089 C 311.815 191.178,312.985 191.178,313.700 191.089 C 314.415 191.001,313.830 190.928,312.400 190.928 C 310.970 190.928,310.385 191.001,311.100 191.089 M319.862 191.100 C 319.760 191.265,320.992 191.400,322.600 191.400 C 324.208 191.400,325.440 191.265,325.338 191.100 C 325.236 190.935,324.004 190.800,322.600 190.800 C 321.196 190.800,319.964 190.935,319.862 191.100 M331.507 191.090 C 332.226 191.179,333.306 191.177,333.907 191.086 C 334.508 190.995,333.920 190.922,332.600 190.924 C 331.280 190.926,330.788 191.001,331.507 191.090 M339.861 191.100 C 339.759 191.265,340.603 191.348,341.738 191.284 C 345.147 191.094,345.563 190.912,342.724 190.854 C 341.252 190.825,339.964 190.935,339.861 191.100 M309.728 194.000 C 309.728 195.430,309.801 196.015,309.889 195.300 C 309.978 194.585,309.978 193.415,309.889 192.700 C 309.801 191.985,309.728 192.570,309.728 194.000 M329.728 194.000 C 329.728 195.430,329.801 196.015,329.889 195.300 C 329.978 194.585,329.978 193.415,329.889 192.700 C 329.801 191.985,329.728 192.570,329.728 194.000 M299.960 196.922 C 300.138 197.099,301.345 197.186,302.642 197.117 L 305.000 196.990 302.318 196.795 C 300.843 196.688,299.782 196.745,299.960 196.922 M319.862 196.900 C 319.964 197.065,321.196 197.200,322.600 197.200 C 324.004 197.200,325.236 197.065,325.338 196.900 C 325.440 196.735,324.208 196.600,322.600 196.600 C 320.992 196.600,319.760 196.735,319.862 196.900 M311.507 197.090 C 312.226 197.179,313.306 197.177,313.907 197.086 C 314.508 196.995,313.920 196.922,312.600 196.924 C 311.280 196.926,310.788 197.001,311.507 197.090 M331.507 197.090 C 332.226 197.179,333.306 197.177,333.907 197.086 C 334.508 196.995,333.920 196.922,332.600 196.924 C 331.280 196.926,330.788 197.001,331.507 197.090 M304.677 201.479 C 304.940 201.666,305.226 202.895,305.313 204.210 L 305.470 206.600 305.435 204.032 C 305.409 202.109,305.249 201.423,304.800 201.301 C 304.380 201.188,304.343 201.241,304.677 201.479 M309.766 201.745 C 309.359 202.804,309.784 206.934,310.310 207.038 C 310.591 207.094,310.636 207.049,310.410 206.937 C 309.804 206.636,309.885 201.713,310.500 201.465 C 310.892 201.307,310.889 201.256,310.487 201.232 C 310.206 201.214,309.881 201.445,309.766 201.745 M329.724 204.200 C 329.726 205.520,329.801 206.012,329.890 205.293 C 329.979 204.574,329.977 203.494,329.886 202.893 C 329.795 202.292,329.722 202.880,329.724 204.200 M292.501 204.200 C 292.505 205.080,292.587 205.393,292.683 204.895 C 292.779 204.398,292.775 203.678,292.675 203.295 C 292.575 202.913,292.496 203.320,292.501 204.200 M181.000 210.800 C 182.306 212.120,183.465 213.200,183.575 213.200 C 183.685 213.200,182.706 212.120,181.400 210.800 C 180.094 209.480,178.935 208.400,178.825 208.400 C 178.715 208.400,179.694 209.480,181.000 210.800 M299.862 211.500 C 299.760 211.665,300.514 211.747,301.538 211.683 C 304.712 211.484,305.109 211.311,302.524 211.254 C 301.162 211.225,299.964 211.335,299.862 211.500 M311.100 211.489 C 311.815 211.578,312.985 211.578,313.700 211.489 C 314.415 211.401,313.830 211.328,312.400 211.328 C 310.970 211.328,310.385 211.401,311.100 211.489 M319.861 211.500 C 319.759 211.665,320.603 211.748,321.738 211.684 C 325.147 211.494,325.563 211.312,322.724 211.254 C 321.252 211.225,319.964 211.335,319.861 211.500 M331.507 211.490 C 332.226 211.579,333.306 211.577,333.907 211.486 C 334.508 211.395,333.920 211.322,332.600 211.324 C 331.280 211.326,330.788 211.401,331.507 211.490 M340.262 211.500 C 340.160 211.665,340.914 211.747,341.938 211.683 C 345.112 211.484,345.509 211.311,342.924 211.254 C 341.562 211.225,340.364 211.335,340.262 211.500 M305.195 214.482 C 305.088 215.957,305.145 217.018,305.322 216.840 C 305.499 216.662,305.586 215.455,305.517 214.158 L 305.390 211.800 305.195 214.482 M309.728 214.400 C 309.728 215.830,309.801 216.415,309.889 215.700 C 309.978 214.985,309.978 213.815,309.889 213.100 C 309.801 212.385,309.728 212.970,309.728 214.400 M329.720 214.400 C 329.720 215.610,329.795 216.105,329.887 215.500 C 329.978 214.895,329.978 213.905,329.887 213.300 C 329.795 212.695,329.720 213.190,329.720 214.400 M285.000 221.200 L 216.200 221.403 284.876 221.502 C 330.335 221.567,353.636 221.465,353.800 221.200 C 353.936 220.980,353.992 220.844,353.924 220.898 C 353.856 220.952,322.840 221.088,285.000 221.200 M355.600 226.634 C 354.290 227.170,354.277 227.192,355.400 226.975 C 356.060 226.848,356.771 226.576,356.980 226.372 C 357.459 225.903,357.321 225.929,355.600 226.634 M229.742 230.600 C 229.741 232.580,229.808 233.440,229.892 232.512 C 229.976 231.584,229.977 229.964,229.895 228.912 C 229.812 227.860,229.743 228.620,229.742 230.600 M329.742 230.600 C 329.741 232.580,329.808 233.440,329.892 232.512 C 329.976 231.584,329.977 229.964,329.895 228.912 C 329.812 227.860,329.743 228.620,329.742 230.600 M250.500 239.900 C 269.365 239.957,300.235 239.957,319.100 239.900 C 337.965 239.842,322.530 239.795,284.800 239.795 C 247.070 239.795,231.635 239.842,250.500 239.900 M215.023 240.889 C 214.481 241.662,214.412 243.789,214.491 257.189 L 214.582 272.600 214.791 256.961 C 214.957 244.531,215.113 241.186,215.549 240.661 C 215.851 240.297,215.996 240.000,215.872 240.000 C 215.747 240.000,215.365 240.400,215.023 240.889 M360.983 257.200 C 360.983 266.550,361.036 270.375,361.100 265.700 C 361.164 261.025,361.164 253.375,361.100 248.700 C 361.036 244.025,360.983 247.850,360.983 257.200 M354.982 257.200 C 354.982 265.670,355.035 269.135,355.099 264.900 C 355.164 260.665,355.164 253.735,355.099 249.500 C 355.035 245.265,354.982 248.730,354.982 257.200 M305.137 246.672 C 305.234 248.550,305.119 249.416,304.737 249.684 C 304.307 249.986,304.320 250.028,304.800 249.899 C 305.462 249.720,305.911 244.952,305.321 244.359 C 305.144 244.182,305.061 245.223,305.137 246.672 M309.766 244.545 C 309.313 245.724,309.788 249.734,310.400 249.899 C 310.880 250.028,310.893 249.986,310.463 249.684 C 310.081 249.416,309.966 248.546,310.063 246.653 C 310.202 243.966,310.144 243.559,309.766 244.545 M329.724 247.000 C 329.726 248.320,329.801 248.812,329.890 248.093 C 329.979 247.374,329.977 246.294,329.886 245.693 C 329.795 245.092,329.722 245.680,329.724 247.000 M229.738 249.106 C 229.484 249.268,230.502 249.400,232.000 249.400 C 233.498 249.400,234.516 249.268,234.262 249.106 C 234.008 248.944,232.990 248.812,232.000 248.812 C 231.010 248.812,229.992 248.944,229.738 249.106 M138.500 250.276 C 138.885 250.376,139.515 250.376,139.900 250.276 C 140.285 250.175,139.970 250.093,139.200 250.093 C 138.430 250.093,138.115 250.175,138.500 250.276 M305.195 256.918 L 305.391 259.800 305.516 257.241 C 305.585 255.833,305.497 254.536,305.321 254.359 C 305.144 254.181,305.088 255.333,305.195 256.918 M309.766 254.545 C 309.651 254.844,309.614 256.149,309.684 257.445 L 309.812 259.800 310.006 256.899 C 310.201 253.988,310.154 253.533,309.766 254.545 M329.724 257.000 C 329.726 258.320,329.801 258.812,329.890 258.093 C 329.979 257.374,329.977 256.294,329.886 255.693 C 329.795 255.092,329.722 255.680,329.724 257.000 M292.501 257.000 C 292.505 257.880,292.587 258.193,292.683 257.695 C 292.779 257.198,292.775 256.478,292.675 256.095 C 292.575 255.713,292.496 256.120,292.501 257.000 M226.000 262.600 C 226.746 263.370,227.447 264.000,227.557 264.000 C 227.667 264.000,227.146 263.370,226.400 262.600 C 225.654 261.830,224.953 261.200,224.843 261.200 C 224.733 261.200,225.254 261.830,226.000 262.600 M299.862 264.300 C 299.760 264.465,300.514 264.547,301.538 264.483 C 304.712 264.284,305.109 264.111,302.524 264.054 C 301.162 264.025,299.964 264.135,299.862 264.300 M309.766 264.545 C 309.651 264.844,309.622 266.149,309.703 267.445 L 309.849 269.800 309.924 267.119 L 310.000 264.438 312.500 264.296 L 315.000 264.154 312.487 264.077 C 310.680 264.022,309.916 264.153,309.766 264.545 M319.861 264.300 C 319.759 264.465,320.603 264.548,321.738 264.484 C 325.147 264.294,325.563 264.112,322.724 264.054 C 321.252 264.025,319.964 264.135,319.861 264.300 M331.507 264.290 C 332.226 264.379,333.306 264.377,333.907 264.286 C 334.508 264.195,333.920 264.122,332.600 264.124 C 331.280 264.126,330.788 264.201,331.507 264.290 M341.500 264.289 C 342.215 264.378,343.385 264.378,344.100 264.289 C 344.815 264.201,344.230 264.128,342.800 264.128 C 341.370 264.128,340.785 264.201,341.500 264.289 M305.331 267.000 C 305.333 268.540,305.405 269.121,305.492 268.291 C 305.579 267.461,305.577 266.201,305.489 265.491 C 305.400 264.781,305.329 265.460,305.331 267.000 M230.900 265.087 C 231.505 265.178,232.495 265.178,233.100 265.087 C 233.705 264.995,233.210 264.920,232.000 264.920 C 230.790 264.920,230.295 264.995,230.900 265.087 M329.724 267.000 C 329.726 268.320,329.801 268.812,329.890 268.093 C 329.979 267.374,329.977 266.294,329.886 265.693 C 329.795 265.092,329.722 265.680,329.724 267.000 M358.175 278.100 L 357.000 279.400 358.300 278.225 C 359.015 277.579,359.600 276.994,359.600 276.925 C 359.600 276.616,359.270 276.888,358.175 278.100 M141.300 279.076 C 141.685 279.176,142.315 279.176,142.700 279.076 C 143.085 278.975,142.770 278.893,142.000 278.893 C 141.230 278.893,140.915 278.975,141.300 279.076 M134.707 279.490 C 135.426 279.579,136.506 279.577,137.107 279.486 C 137.708 279.395,137.120 279.322,135.800 279.324 C 134.480 279.326,133.988 279.401,134.707 279.490 " stroke="none" fill="#fccc54" fill-rule="evenodd"></path></g></svg>